# xmcd
#
# Track frame offsets:
#	150
#	18760
#	39540
#	53340
#	67965
#	89825
#	102502
#	122152
#	138652
#	152972
#	164340
#	180915
#	203635
#	223960
#	239935
#	259960
#	278710
#	303017
#
# Disc length: 4255 seconds
#
# Revision: 1
# Processed by: cddbd v1.4PL0 Copyright (c) Steve Scherf et al.
# Submitted via: EasyCDDAExtractor 6.2.0.3
#
DISCID=06109d12
DTITLE=Various Artist - Route 50: Driving New Roots For 50 Years [CD2]
DYEAR=1900
DGENRE=
TTITLE0=Mark Selby - Don't You Throw That Mojo On Me
TTITLE1=Mark Selby - I'm The Lucky One
TTITLE2=Terry Radigan - When I Get Around You
TTITLE3=Terry Radigan - Blink
TTITLE4=Peter Case - Blue Distance
TTITLE5=Peter Case - Something Happens
TTITLE6=Tab Benoit - Crawfishin'
TTITLE7=Tab Benoit - Jambalaya
TTITLE8=David Wilcox - This Tatoo
TTITLE9=David Wilcox - Rule Number One
TTITLE10=Venice - Landslide
TTITLE11=Venice - One Quiet Day
TTITLE12=Patty Larkin - Beg To Differ
TTITLE13=Patty Larkin - Burnin Down
TTITLE14=Bill Miller - Ghostdance
TTITLE15=Bill Miller - Every Mountain I Climb
TTITLE16=Ian Tyson - La Primera
TTITLE17=Ian Tyson - Brahmas And Mustangs
EXTD=
EXTT0=
EXTT1=
EXTT2=
EXTT3=
EXTT4=
EXTT5=
EXTT6=
EXTT7=
EXTT8=
EXTT9=
EXTT10=
EXTT11=
EXTT12=
EXTT13=
EXTT14=
EXTT15=
EXTT16=
EXTT17=
PLAYORDER=
